<?xml version="1.0" standalone="no"?><!DOCTYPE svg PUBLIC "-//W3C//DTD SVG 1.1//EN" "http://www.w3.org/Graphics/SVG/1.1/DTD/svg11.dtd"><svg t="1751260154471" class="icon" viewBox="0 0 1024 1024" version="1.1" xmlns="http://www.w3.org/2000/svg" p-id="5483" xmlns:xlink="http://www.w3.org/1999/xlink" width="200" height="200"><path d="M823.986 682.688" fill="#1296db" p-id="5484"></path><path d="M658.141 236.631 361.447 236.631c-38.596 0-69.81 31.213-69.81 69.811l0 401.414c0 38.538 31.268 69.808 69.81 69.808l174.529 0 34.903 0 17.452 0 0-0.672c57.111-6.543 132.518-74.678 138.951-138.95l0.67 0 0-331.6C727.953 267.844 696.686 236.631 658.141 236.631zM559.946 598.61l0 1.158c-11.527 2.998-20.474 11.947-23.479 23.478l-1.154 0 0 8.208 0 98.543L371.075 729.997c-18.161 0-32.845-14.686-32.845-32.845L338.23 319.409c0-18.162 14.684-32.845 32.845-32.845l279.199 0c18.161 0 32.847 14.684 32.847 32.845L683.121 598.61 559.946 598.61zM579.081 728.422l-8.083 0 0-64.664 0-16.165c0-8.912 7.254-16.169 16.165-16.169l16.166 0 80.003 0C675.662 671.479 615.505 728.422 579.081 728.422z" fill="#1296db" p-id="5485"></path><path d="M470.527 515.872l-69.812 0c-7.214 0-13.088 5.876-13.088 13.087 0 7.218 5.874 13.094 13.088 13.094l69.812 0c7.215 0 13.089-5.876 13.089-13.094C483.616 521.692 477.742 515.872 470.527 515.872L470.527 515.872z" fill="#1296db" p-id="5486"></path><path d="M522.886 515.872l-8.728 0c-7.215 0-13.089 5.876-13.089 13.087 0 7.218 5.874 13.094 13.089 13.094l8.728 0c7.213 0 13.091-5.876 13.091-13.094C535.977 521.692 530.099 515.872 522.886 515.872L522.886 515.872z" fill="#1296db" p-id="5487"></path><path d="M614.512 428.608 405.077 428.608c-9.619 0-17.449 7.833-17.449 17.454 0 9.621 7.83 17.453 17.449 17.453l209.435 0c9.622 0 17.451-7.832 17.451-17.453C631.963 436.385 624.134 428.608 614.512 428.608L614.512 428.608z" fill="#1296db" p-id="5488"></path><path d="M614.512 341.349 405.077 341.349c-9.619 0-17.449 7.83-17.449 17.45 0 9.623 7.83 17.453 17.449 17.453l209.435 0c9.622 0 17.451-7.83 17.451-17.453C631.963 349.179 624.134 341.349 614.512 341.349L614.512 341.349z" fill="#1296db" p-id="5489"></path><path d="M614.512 341.349" fill="#1296db" p-id="5490"></path><path d="M348.189 70.174l0 0.02C199.063 71.601 77.021 203.287 74.038 351.791l-0.812 0-1.633 600.408 601.153 1.628 0.043-0.077c148.199-2.6 274.787-124.356 277.74-272.067l0.222 0 1.656-609.865L348.189 70.174 348.189 70.174zM834.842 681.365c-2.651 88.833-70.601 154-159.453 156.754l-489.53-0.336 2.345-483.927 0 0c1.882-91.086 68.016-168.157 159.67-168.402l489.082 0.317-2.348 495.594L834.842 681.365 834.842 681.365zM834.842 681.365" fill="#1296db" p-id="5491"></path></svg>